Shirley has important news for her family, but she has five grown children with different lifestyles and finds it difficult to get them and the kids all together.


Cast: Tyler Perry ...
Madea
Loretta Devine Loretta Devine ...
Mother-in-Law
Bow Wow Bow Wow ...
Brother-in-Law
Lauren London Lauren London ...
Renee
Shannon Kane Shannon Kane ...
Kimberly
Isaiah Mustafa Isaiah Mustafa ...
Calvin
Philip Anthony-Rodriguez Philip Anthony-Rodriguez ...
Dr. Evans

--------------------------------------------------------------------------------
Format;Avi

File Size:1.6gb

Video: ID : 0
Format : MPEG-4 Visual
Format profile : Simple@L3
Format settings, BVOP : No
Format settings, QPel : No
Format settings, GMC : No warppoints
Format settings, Matrix : Default (H.263)
Codec ID : XVID
Codec ID/Hint : XviD
Duration : 2h 31mn
Bit rate : 1 069 Kbps
Width : 720 pixels
Height : 400 pixels
Display aspect ratio : 16:9
Frame rate : 29.970 fps
Color space : YUV
Chroma subsampling : 4:2:0
Bit depth : 8 bits
Scan type : Progressive
Bits/(Pixel*Frame) : 0.124
Stream size : 1.13 GiB (70%)
Writing library : XviD 1.2.1 (UTC 2008-12-04)

Audio: ID : 1
Format : AC-3
Format/Info : Audio Coding 3
Mode extension : CM (complete main)
Codec ID : 2000
Duration : 2h 31mn
Bit rate mode : Constant
Bit rate : 448 Kbps
Channel(s) : 6 channels
Channel positions : Front: L C R, Side: L R, LFE
Sampling rate : 48.0 KHz
Bit depth : 16 bits
Stream size : 487 MiB (29%)
Alignment : Aligned on interleaves
Interleave, duration : 33 ms (1.00 video frame)
Interleave, preload duration : 512 ms

Duration:2:32

Release Date:2010

Language:English 
-------------------------------------------------------------------------------- 
http://img140.imageshack.us/img140/1579/vlcsnap2010111820h09m00.png 
http://img263.imageshack.us/img263/5172/vlcsnap2010111820h09m27.png 
http://img833.imageshack.us/img833/8415/vlcsnap2010111820h10m56.png 
http://img696.imageshack.us/img696/746/vlcsnap2010111820h08m43.png
 
http://www.imdb.com/title/tt1647476/ 
--------------------------------------------------------------------------------
